<svg width="24" height="24" viewBox="0 0 24 24" fill="none" xmlns="http://www.w3.org/2000/svg">
<path d="M15.1399 20V17.7109C15.1698 17.3306 15.1184 16.9483 14.9891 16.5893C14.8598 16.2304 14.6557 15.9031 14.3901 15.6292C16.8946 15.35 19.5266 14.4009 19.5266 10.0461C19.5264 8.93248 19.0981 7.86161 18.3302 7.05508C18.6938 6.08083 18.6681 5.00396 18.2585 4.04816C18.2585 4.04816 17.3173 3.76901 15.1399 5.2286C13.3118 4.73315 11.3848 4.73315 9.55674 5.2286C7.37931 3.76901 6.43815 4.04816 6.43815 4.04816C6.02849 5.00396 6.00278 6.08083 6.36637 7.05508C5.5928 7.86759 5.16402 8.94814 5.16998 10.07C5.16998 14.3929 7.80203 15.3421 10.3065 15.6531C10.0441 15.9243 9.84168 16.2476 9.7125 16.6022C9.58333 16.9567 9.53026 17.3345 9.55674 17.7109V20" stroke="white" stroke-width="1.5" stroke-linecap="round" stroke-linejoin="round"/>
<path d="M9.55665 18.4047C7.16388 19.181 5.1699 18.4047 3.97351 16.012" stroke="white" stroke-width="1.5" stroke-linecap="round" stroke-linejoin="round"/>
</svg>

