<svg width="70" height="70" viewBox="0 0 70 70" fill="none" xmlns="http://www.w3.org/2000/svg">
<path d="M36.3234 0L70 15.9091L70.0004 20.4483L55.5885 41.9483L68.8622 48.5517V53.8161L36.3234 70H33.6773L0 54.0909L0.000388406 49.5517L14.4094 28.0489L1.13855 21.4483V16.1839L33.6773 0H36.3234ZM6.78027 50.0402L33.6773 68.4091L31.8182 36.5909L19.7421 30.7011L6.78027 50.0402ZM36.3234 68.5526L60.924 51.1839L52.2808 46.8851L36.3234 68.5526ZM35 68.4091L46.9482 44.2328L38.1818 39.7727L35 68.4091ZM38.1818 33.4091L50.2558 39.296L63.2176 19.9569L36.3234 1.65562L38.1818 33.4091ZM23.0497 25.7644L31.8182 30.2273L35 1.59091L23.0497 25.7644ZM9.07682 18.8161L17.717 23.1121L33.6773 1.59091L9.07682 18.8161Z" fill="white"/>
</svg>

