<svg width="14" height="14" viewBox="0 0 14 14" fill="none" xmlns="http://www.w3.org/2000/svg">
<g clip-path="url(#clip0_21_256)">
<path d="M0.982727 12.64V1.36C0.982727 1.16118 1.1842 1 1.43273 1H10.1714C10.2907 1 10.4051 1.03793 10.4895 1.10544L12.9102 3.73828C12.9945 3.8058 13.0173 4.06858 13.0173 4.16406L12.9827 12.64C12.9827 12.8388 12.7813 13 12.5327 13H1.43273C1.1842 13 0.982727 12.8388 0.982727 12.64Z" stroke="white" stroke-linecap="round" stroke-linejoin="round"/>
<path d="M10 1V3.55C10 3.79853 10.2015 4 10.45 4H13" stroke="white" stroke-linecap="round" stroke-linejoin="round"/>
<path d="M2.99261 6H5.79261" stroke="white" stroke-linecap="round" stroke-linejoin="round"/>
<path d="M2.99261 10H7.65928" stroke="white" stroke-linecap="round" stroke-linejoin="round"/>
<path d="M2.99261 8H5.32595" stroke="white" stroke-linecap="round" stroke-linejoin="round"/>
</g>
<defs>
<clipPath id="clip0_21_256">
<rect width="14" height="14" fill="white"/>
</clipPath>
</defs>
</svg>

